<?xml version="1.0" encoding="UTF-8"?>
<svg preserveAspectRatio="xMidYMid slice" width="136px" height="136px" xmlns="http://www.w3.org/2000/svg" viewBox="0 0 416 416">
  <defs>
    <style>.cls-1{fill:#fff;}.cls-2{fill:#231f20;fill-rule:evenodd;}</style>
  </defs>
  <title>tre_3</title>
  <g id="Layer_2" data-name="Layer 2">
    <g id="Layer_5" data-name="Layer 5">
      <rect class="cls-1" width="416" height="416"></rect>
    </g>
    <g id="Layer_2-2" data-name="Layer 2">
      <g id="C9meWu">
        <path class="cls-2" d="M211.8,154.5h2.6c11.6.6,20.1,4.6,23.6,13.1,2,4.4,2,10.2.6,15.4s-4.1,8.5-6.4,12c3.4,2.9,7.2,5.5,10.1,9.3s4.7,8.1,5,14.3v2.6a32.6,32.6,0,0,1-12.5,24.7c-6.7,5.6-15.8,9.1-27.1,9.6h-3.2c-9.9-.5-18.4-3.2-24.2-7.5s-10.8-10.8-11.3-20.4v-1.8h0a17.5,17.5,0,0,1,4.9-11.6,16.8,16.8,0,0,1,11.4-5.3c5.2-.2,9.9,1.2,12.8,3.8s4.6,6.7,4.1,12.3c6.7.3,10.7-2.9,12.5-8.2a11.3,11.3,0,0,0,.6-6.1c-1.2-4.4-7.9-4.1-12.9-5.2s-8.7-2.1-9.9-5.6,1.5-4.6,3-5.8,5.2-3.5,8.1-5.5c.9-.6,3.5-2.1,3.5-3.5s-1.7-1.5-2.9-1.8c-4.1-.9-9.3-.9-13.7-.9-6.7,0-16,.3-18.9-2.9s-.6-6.4.9-8.1c3.4-4.4,8.7-7.6,13.9-10.2A55.3,55.3,0,0,1,211.8,154.5ZM194,213.3a17,17,0,0,0-11.6-1.4,13.5,13.5,0,0,0-8.2,5.8c-2,2.6-3.2,6.4-2.9,11.1.9,8.1,5.5,13.3,10.8,17.1s12.5,6.1,21.5,6.7,16.6-1.4,22.7-4.9c9.1-5,16.3-12.3,17.5-24.8s-4.9-18.3-11.4-23.3c-1.1-.8-3.2-2-3.5-3.5a4.8,4.8,0,0,1,1.5-3.8,38,38,0,0,0,4.7-8.4c1.7-4.4,2-10.5,0-14.6-3.5-7.5-12.3-11.9-23.6-11.6a57.7,57.7,0,0,0-23.6,5.8,49.1,49.1,0,0,0-9,5.6,24.2,24.2,0,0,0-5.6,5.5c-.8,1.4-1.4,3.5.6,3.8s4.1-.3,5.8-.9,3.2-1.5,4.7-2c6.4-3.2,12.2-6.7,18.6-9.1a34.7,34.7,0,0,1,11.7-2.3c-2.3,1.7-5,3.5-5.6,7,2.1,0,3.8-.9,5.9-1.5a18.3,18.3,0,0,1,6.7-.5c4,.5,7,3.2,9,5.8-2.6-.6-6.1-.6-7.3,1.1.9,1.5,2.3,2.7,3.2,4.4a9.9,9.9,0,0,1,1.2,6.1,12.5,12.5,0,0,1-5.8,8.8,17.7,17.7,0,0,0,.5-4.1c0-1.2-.2-3.2-1.1-3.5s-2.4,1.2-2.9,1.7a99.1,99.1,0,0,1-8.5,5.9c-4.1,2.3-8.1,4.6-13.4,5.2,3.5,1.7,7.9,2.3,12.3,3.2,13.1,2.6,24.4,6.4,28.5,17.2l-3.5-1.5c-.6-.3-3.5-1.1-4.1-.6s0,2.4.3,3,.6,2,.9,3.2a18.2,18.2,0,0,1-5.3,16.6.7.7,0,0,1-.5.3,17.7,17.7,0,0,0,0-6.5c-.3-.8-.6-3.2-1.8-3.2s-1.4,1.8-2,2.7-1.2,2-1.8,2.9c-3.8,5.2-9.3,8.7-17.2,9.6a10.6,10.6,0,0,0,3-4.7,3.1,3.1,0,0,0,.3-2c-.6-.6-2.4.3-3.3.6l-3.2.8c-5.2.9-10.1-.2-13.1-2.3a15.7,15.7,0,0,1-4-4.1,13.6,13.6,0,0,0,3.5,0c.8,0,2.3-.3,2.3-1.1s-1.2-1.2-1.5-1.8-3.2-3.5-2.9-6.4,1.8-4.9,3.2-6.4c-.3,2.9.6,5.5,3.2,6.1.6-.6.3-1.4.3-2a6.1,6.1,0,0,1,2.3-2.9c3.3-1.8,7,1.1,7.6,4.3C199.8,219.1,197.8,215.4,194,213.3Zm-14.6-34.1c5.3.3,10.8.3,16.6.3s11.4.6,12.9,4.4-2.1,5-3.8,6.1-5.3,3.2-7.9,5.3a6.9,6.9,0,0,0-3.2,3.5c1.2.8,2.9.2,4.1,0l3.5-1.2c5.5-2.3,10.5-5.8,15.1-9.3.9-.6,2.1-1.8,3.2-1.8,2.9-.3,3.2,3.2,3.2,6.1a10.4,10.4,0,0,0,2.6-7.5,6.6,6.6,0,0,0-1.7-4.4c-.6-.9-2.3-2.3-2.6-3.8s2.9-3.2,5.5-3.2a10.9,10.9,0,0,0-9-2.6,8.2,8.2,0,0,0-4.7.6c-1.1.3-3.5,1.4-4.9.8s-.6-2.9,0-3.7,1.7-2.4,2-3C198.4,168.5,190.2,175.2,179.4,179.2Zm34.1,44a16.6,16.6,0,0,1-12.5,4.4c-.9,1.4-1.8,2.9-2.9,3.5,1.1-4.1-.3-9-3.8-9.6a2.9,2.9,0,0,0-3.5,2.3,5.8,5.8,0,0,1-.3,2.3,2.2,2.2,0,0,1-2.6.6,4.7,4.7,0,0,1-2.9-3.8c-1.2,2.4-1.2,4.4.3,6.4a5.2,5.2,0,0,0,1.7,2.1c.6.6,1.8,1.4,1.8,2.3s-2.4,2.9-4.1,3.2c2.6,2,4.9,3.8,9.6,3.8a34.4,34.4,0,0,0,5.8-.6c1.2-.3,4.4-1.4,5.6-1.2s.2,5.3-.6,6.5a19.6,19.6,0,0,0,12.8-8.8,38.9,38.9,0,0,1,2.9-4.6c.3-.3.9-.9,1.2-.9a2.2,2.2,0,0,1,2.6,1.4,9.3,9.3,0,0,1,.9,5.6c1.4-2.4,3.2-5,3.2-9.1a13,13,0,0,0-.9-4.9c-.6-2-2.3-6.1.3-6.7s3.5.6,5.2.9c-4.1-5.9-10.8-9.6-18.6-11.4C219.9,210.7,216.7,219.7,213.5,223.2Z"></path>
      </g>
    </g>
  </g>
</svg>
