<?xml version="1.0" encoding="UTF-8"?>
<svg preserveAspectRatio="xMidYMid slice" width="136px" height="136px" xmlns="http://www.w3.org/2000/svg" viewBox="0 0 416 416">
  <defs>
    <style>.cls-1,.cls-2{fill:#fff;}.cls-2,.cls-3,.cls-4,.cls-5{fill-rule:evenodd;}.cls-3{fill:#009552;}.cls-4{fill:#007446;}.cls-5{fill:#00693c;}</style>
  </defs>
  <title>specsavers</title>
  <g id="Layer_2" data-name="Layer 2">
    <g id="Layer_5" data-name="Layer 5">
      <rect class="cls-1" width="416" height="416"></rect>
    </g>
    <g id="Layer_4" data-name="Layer 4">
      <path class="cls-2" d="M119.4,222.7H305.7V184.1H119.4Z"></path>
      <path class="cls-3" d="M170.7,196c-2.7,0-4.5,2-4.5,5.1v.4h8.9v-.4c0-3.1-1.7-5.1-4.4-5.1"></path>
      <path class="cls-3" d="M149.9,195.8a18.7,18.7,0,0,0-3.8.3h-.2v14.2h.2l3.8.3c4,0,4.5-3.2,4.5-6v-3c0-2.8-.5-5.9-4.5-5.9"></path>
      <path class="cls-3" d="M196.9,195.9c0,.3-.3.3-.6.3a32.1,32.1,0,0,0-5.1-.3c-1.5,0-4,.7-4,5.5v3.7c0,4.7,2.5,5.4,4,5.4a32.1,32.1,0,0,0,5.1-.3h.1c.2,0,.5.1.5.4v2.5c0,.5-.1.7-.7.8a20.9,20.9,0,0,1-5,.5c-5.5,0-8.8-3.5-8.8-9.3v-3.7c0-5.9,3.3-9.4,8.8-9.4a20.9,20.9,0,0,1,5,.5c.6.1.7.3.7.8ZM179.8,204c0,.7-.2.8-.5.8H166.2v.3c0,1.6.5,5.3,5,5.3a65.7,65.7,0,0,0,7.2-.4h.2a.4.4,0,0,1,.4.4V213c0,.5,0,.7-.6.8a39.6,39.6,0,0,1-7.6.6c-1.6,0-9.3-.4-9.3-9.7v-2.9c0-6.1,3.4-9.8,9.2-9.8s9.1,3.8,9.1,9.8Zm-20.7.7c0,6.4-3.2,9.7-9.2,9.7l-3.8-.2h-.2v7.3a.6.6,0,0,1-.6.6h-3.6a.6.6,0,0,1-.6-.6V193.9c0-.5.1-.7.9-.9a35.6,35.6,0,0,1,7.9-1c6,0,9.2,3.4,9.2,9.7ZM137,211.4c-1.4,1.7-4,3.1-8.5,3.1h-.1a29.3,29.3,0,0,1-6.9-.7c-.3-.1-.6-.3-.6-.6v-2.9a.6.6,0,0,1,.6-.5c1.6.2,5.6.4,7,.4,3.4-.1,4.8-1.2,4.8-3.8s-.9-2.5-3.5-4l-5.2-3.2c-3.2-1.9-4.6-3.9-4.6-7a6.5,6.5,0,0,1,2.5-5.5c1.6-1.3,4-1.9,7.2-1.9a47,47,0,0,1,7.6.7c.3.1.6.2.6.6V189a.6.6,0,0,1-.6.6,75.4,75.4,0,0,0-7.8-.4c-2.9,0-4.3,1-4.3,3s.7,2.2,3.3,3.6l4.8,2.7c3.8,2.1,5.4,4.4,5.4,7.9A8.3,8.3,0,0,1,137,211.4Zm69,14.4h0l-.7-.8h-.1l-.6-.7V224l-.6-.7h-.1l-2.3-3.4h0c-.1-.3-.3-.5-.4-.8v-.2l-.4-.6c0-.2-.1-.3-.1-.4l-.3-.6a.5.5,0,0,1-.2-.4l-.3-.5-.2-.4c-.1-.2-.1-.4-.2-.6s-.1-.3-.2-.4-.1-.4-.2-.6l-.2-.5c0-.2-.1-.3-.2-.5a1.4,1.4,0,0,0-.2-.6c-.1-.3-.1-.5-.2-.8s-.1-.4-.2-.6-.1-.3-.1-.5-.1-.4-.1-.6a.6.6,0,0,1-.1-.4l-.2-.6a.9.9,0,0,0-.1-.5,1.3,1.3,0,0,0-.1-.6v-.5a1.3,1.3,0,0,1-.1-.6.6.6,0,0,0-.1-.4v-.7a.8.8,0,0,0-.1-.4v-4.3a.8.8,0,0,0,.1-.4v-.7a.6.6,0,0,0,.1-.4,1.5,1.5,0,0,1,.1-.7v-.4a1.3,1.3,0,0,0,.1-.6.9.9,0,0,0,.1-.5c.1-.2.1-.4.2-.6a.6.6,0,0,1,.1-.4c0-.2.1-.4.1-.6s.1-.3.1-.5a6.4,6.4,0,0,0,.2-.7,1.9,1.9,0,0,0,.2-.7,1.4,1.4,0,0,0,.2-.6l.2-.5.2-.5c.1-.2.1-.4.2-.5l.2-.5a.8.8,0,0,1,.2-.5l.2-.5.3-.5c0-.2.1-.3.1-.4l.3-.6.2-.3a1.6,1.6,0,0,1,.4-.7v-.2c.6-1.1,1.3-2.2,2-3.3h.1l.5-.7v-.2l.6-.7h.1l.6-.8a.1.1,0,0,0,.1-.1l.6-.7h.1a46.9,46.9,0,0,1,5.5-5.4h0l.9-.7c-12.1-9.6-30.1-15.7-50.2-15.7-36.3,0-65.8,19.8-65.8,44.3s29.5,44.4,65.8,44.4c20.2,0,38.2-6.2,50.3-15.8h0A47.9,47.9,0,0,1,206,225.8Z"></path>
      <path class="cls-3" d="M229.4,201.3v-2c0-2.2-.9-3.1-2.4-3.3l.2.5a.9.9,0,0,0,.1.5,1.3,1.3,0,0,0,.1.6,1.1,1.1,0,0,0,.1.5,1.1,1.1,0,0,0,.1.5v.5a1.3,1.3,0,0,1,.1.6c0,.2.1.3.1.5v.6a.9.9,0,0,1,.1.5h1.5"></path>
      <path class="cls-3" d="M227.9,204.9v.7a.6.6,0,0,1-.1.4v.7c0,.1-.1.3-.1.4a1.3,1.3,0,0,1-.1.6v.5a1.3,1.3,0,0,0-.1.6.7.7,0,0,0-.1.5,4.3,4.3,0,0,0-.1.5,1.1,1.1,0,0,0-.1.5v.2a8.5,8.5,0,0,0,2.2-.9h.1v-5.3h-1.5v.6"></path>
      <path class="cls-3" d="M297.4,214.4a30.1,30.1,0,0,1-7-.8.6.6,0,0,1-.6-.6v-2.4a.4.4,0,0,1,.4-.4h.1a60.6,60.6,0,0,0,6.7.5c2.7,0,3.1-1.1,3.1-2.2s-.6-1.4-1.9-2.2l-5.4-3.4a6.1,6.1,0,0,1-3.2-5.2c0-3.8,2.4-5.7,7.3-5.7a29.6,29.6,0,0,1,6.6.7.8.8,0,0,1,.5.7v2.3c0,.3-.1.5-.4.5h-.1c-1.1-.1-3.9-.4-6.2-.4s-3,.2-3,1.9.8,1.3,1.7,1.8l5.2,3.2c3.4,2.1,3.7,4.1,3.7,5.8C304.9,212.2,302,214.4,297.4,214.4Zm-9.7-19a.6.6,0,0,1-.6.5,11.4,11.4,0,0,0-5.5,1.5h-.2v16.1a.6.6,0,0,1-.5.6h-3.6a.6.6,0,0,1-.6-.6V192.8a.6.6,0,0,1,.6-.5h3.4a.5.5,0,0,1,.5.5v1.3l.4-.3a9.1,9.1,0,0,1,5.5-1.8.6.6,0,0,1,.6.5ZM273.9,204c0,.7-.3.8-.6.8H260.2v.3c0,1.6.5,5.3,5,5.3a69.4,69.4,0,0,0,7.3-.4h.1a.4.4,0,0,1,.4.4V213c0,.5,0,.7-.6.8a38.9,38.9,0,0,1-7.6.6c-1.6,0-9.3-.4-9.3-9.7v-2.9c0-6.1,3.4-9.8,9.2-9.8s9.2,3.8,9.2,9.8Zm-19.2-11.1-5,18a4.8,4.8,0,0,1-9.3,0l-5-18.1h0c0-.3.1-.4.3-.4h4a.6.6,0,0,1,.5.6l3.8,16.6c.2.8.5,1.2,1,1.2s.9-.4,1-1.2l3.8-16.6a.7.7,0,0,1,.6-.6h4c.2,0,.3.1.3.4Zm8-33.9c-20.2,0-38.2,6.1-50.3,15.8h0a54.3,54.3,0,0,1,6.5,6.1h.1l.6.8h.1l.6.7h.1a3.5,3.5,0,0,1,.5.8h.1a40.5,40.5,0,0,1,2.3,3.4h0l.4.7.2.3.3.6.2.3.3.6c0,.2.1.3.1.4l.3.6c.1.1.1.3.2.4a1.4,1.4,0,0,1,.2.6l.2.4h.1c5.5,0,8.3,2.5,8.3,7.3v14.3a.5.5,0,0,1-.5.5h-3.4a.5.5,0,0,1-.5-.5v-1.1l-.4.2a9.4,9.4,0,0,1-3.3,1.4.4.4,0,0,1-.1.3l-.2.5-.2.4a1.4,1.4,0,0,1-.2.6c-.1.1-.1.3-.2.4s-.1.4-.2.6a.8.8,0,0,0-.2.4l-.3.6-.2.3-.3.6-.2.3a34.5,34.5,0,0,1-2,3.2h-.1l-.5.8a.1.1,0,0,0-.1.1l-.6.7v.2l-.6.7h-.1l-.6.8h0a47.9,47.9,0,0,1-5.6,5.4h0l-.9.7c12.1,9.6,30.1,15.7,50.2,15.7,36.4,0,65.8-19.9,65.8-44.4S299.1,159,262.7,159Z"></path>
      <path class="cls-3" d="M264.7,196c-2.7,0-4.5,2-4.5,5.1v.4h8.9v-.4c0-3.1-1.7-5.1-4.4-5.1"></path>
      <path class="cls-3" d="M213.4,231.2a47.9,47.9,0,0,0,5.6-5.4,47.9,47.9,0,0,1-5.6,5.4"></path>
      <path class="cls-3" d="M206,225.8a47.9,47.9,0,0,0,6.5,6.2,47.9,47.9,0,0,1-6.5-6.2"></path>
      <path class="cls-3" d="M211.5,175.5a46.9,46.9,0,0,0-5.5,5.4,46.9,46.9,0,0,1,5.5-5.4"></path>
      <path class="cls-3" d="M205.3,182.1a5.7,5.7,0,0,1,1.1-1.1,5.7,5.7,0,0,0-1.1,1.1"></path>
      <path class="cls-3" d="M204.6,182.9l1.1-1.1-1.1,1.1"></path>
      <path class="cls-3" d="M219,181l1,1.1-1-1.1"></path>
      <path class="cls-3" d="M203.9,183.8l1.1-1.1-1.1,1.1"></path>
      <path class="cls-3" d="M203.3,184.7l1.1-1.1-1.1,1.1"></path>
      <path class="cls-3" d="M201.2,187.7c.6-1.1,1.3-2.2,2-3.3-.7,1.1-1.4,2.2-2,3.3"></path>
      <path class="cls-3" d="M222.2,222.4l-1.1,1.1,1.1-1.1"></path>
      <path class="cls-3" d="M223.7,219.1a34.5,34.5,0,0,1-2,3.2,34.5,34.5,0,0,0,2-3.2"></path>
      <path class="cls-3" d="M221.5,223.3l-1.1,1.1,1.1-1.1"></path>
      <path class="cls-3" d="M206.4,226.1l-1.1-1.1,1.1,1.1"></path>
      <path class="cls-3" d="M220.8,224.2l-1.1,1.1,1.1-1.1"></path>
      <path class="cls-3" d="M213.6,231.3l-1.1,1,1.1-1"></path>
      <path class="cls-3" d="M220.1,225a11.4,11.4,0,0,1-1.1,1.1,11.4,11.4,0,0,0,1.1-1.1"></path>
      <path class="cls-3" d="M218.9,180.9a54.3,54.3,0,0,0-6.5-6.1,54.3,54.3,0,0,1,6.5,6.1"></path>
      <path class="cls-3" d="M220.4,182.7l1,1.1-1-1.1"></path>
      <path class="cls-3" d="M223.3,187l1.1,1.1-1.1-1.1"></path>
      <path class="cls-3" d="M219.7,181.9l1.1,1-1.1-1"></path>
      <path class="cls-3" d="M212.6,174.8a11.4,11.4,0,0,0-1.1,1.1,11.4,11.4,0,0,1,1.1-1.1"></path>
      <path class="cls-3" d="M205,224.4l-1-1.1,1,1.1"></path>
      <path class="cls-3" d="M205.7,225.2l-1.1-1,1.1,1"></path>
      <path class="cls-3" d="M202.3,220.1a11.4,11.4,0,0,1-1.1-1.1,11.4,11.4,0,0,0,1.1,1.1"></path>
      <path class="cls-3" d="M203.9,223.2l-2.3-3.4,2.3,3.4"></path>
      <path class="cls-3" d="M221,183.6a40.5,40.5,0,0,1,2.3,3.4,40.5,40.5,0,0,0-2.3-3.4"></path>
      <path class="cls-4" d="M212.5,232h0"></path>
      <path class="cls-5" d="M213.9,193.4v2.3c0,.3-.1.5-.3.5h-.2c-1.1-.1-3.9-.4-6.2-.4s-2.9.2-2.9,1.9.8,1.3,1.7,1.8l5.1,3.2c3.4,2.1,3.7,4.1,3.7,5.8,0,3.7-2.9,5.9-7.5,5.9a31.3,31.3,0,0,1-7-.8.6.6,0,0,1-.6-.6v-2.4a.5.5,0,0,1,.5-.4h.1a58.9,58.9,0,0,0,6.7.5c2.7,0,3-1.1,3-2.2s-.6-1.4-1.8-2.2l-5.5-3.4a6.1,6.1,0,0,1-3.2-5.2c0-3.8,2.4-5.7,7.3-5.7a28.9,28.9,0,0,1,6.6.7C213.8,192.8,213.9,193,213.9,193.4Zm-2.4-17.9a46.9,46.9,0,0,0-5.5,5.4h-.1l-.6.7a.1.1,0,0,1-.1.1l-.6.8h-.1l-.6.7v.2l-.5.7h-.1c-.7,1.1-1.4,2.2-2,3.3v.2a1.6,1.6,0,0,0-.4.7l-.2.3-.3.6c0,.1-.1.2-.1.4l-.3.5-.2.5a.8.8,0,0,0-.2.5l-.2.5c-.1.1-.1.3-.2.5l-.2.5-.2.5a1.4,1.4,0,0,1-.2.6,1.9,1.9,0,0,1-.2.7,6.4,6.4,0,0,1-.2.7c0,.2-.1.3-.1.5s-.1.4-.1.6a.6.6,0,0,0-.1.4c-.1.2-.1.4-.2.6a.9.9,0,0,1-.1.5,1.3,1.3,0,0,1-.1.6v.4a1.5,1.5,0,0,0-.1.7.6.6,0,0,1-.1.4v.7a.8.8,0,0,1-.1.4v4.3a.8.8,0,0,1,.1.4v.7a.6.6,0,0,1,.1.4,1.3,1.3,0,0,0,.1.6v.5a1.3,1.3,0,0,1,.1.6.9.9,0,0,1,.1.5l.2.6a.6.6,0,0,0,.1.4c0,.2.1.4.1.6s.1.3.1.5.1.4.2.6.1.5.2.8a1.4,1.4,0,0,1,.2.6c.1.2.2.3.2.5l.2.5c.1.2.1.4.2.6s.1.2.2.4.1.4.2.6l.2.4.3.5a.5.5,0,0,0,.2.4l.3.6c0,.1.1.2.1.4l.4.6v.2c.1.3.3.5.4.8h0l2.3,3.4h.1l.6.7v.2l.6.7h.1l.7.8h0a47.9,47.9,0,0,0,6.5,6.2h0l.9-.7h0a47.9,47.9,0,0,0,5.6-5.4h0l.6-.8h.1l.6-.7V224l.6-.7a.1.1,0,0,1,.1-.1l.5-.8h.1a34.5,34.5,0,0,0,2-3.2l.2-.3.3-.6.2-.3.3-.6a.8.8,0,0,1,.2-.4c.1-.2.1-.4.2-.6s.1-.3.2-.4a1.4,1.4,0,0,0,.2-.6l.2-.4.2-.5a.4.4,0,0,0,.1-.3,7.8,7.8,0,0,1-2.2.3c-3,0-6.5-1.1-6.5-6.3v-.2c0-4.6,2.8-6.6,9.4-6.6h1.2a.9.9,0,0,0-.1-.5v-.6c0-.2-.1-.3-.1-.5a1.3,1.3,0,0,0-.1-.6v-.5a1.1,1.1,0,0,1-.1-.5,1.1,1.1,0,0,1-.1-.5,1.3,1.3,0,0,1-.1-.6.9.9,0,0,1-.1-.5l-.2-.5h-1.3a53.2,53.2,0,0,0-6.5.3H219c-.3,0-.4-.1-.4-.4v-2.6c0-.2,0-.5.5-.6a33.7,33.7,0,0,1,6.6-.6h0l-.2-.4a1.4,1.4,0,0,0-.2-.6c-.1-.1-.1-.3-.2-.4l-.3-.6c0-.1-.1-.2-.1-.4l-.3-.6-.2-.3-.3-.6-.2-.3-.4-.7h0a40.5,40.5,0,0,0-2.3-3.4h-.1a3.5,3.5,0,0,0-.5-.8h-.1l-.6-.7h-.1l-.6-.8h-.1a54.3,54.3,0,0,0-6.5-6.1h0l-.9.7Z"></path>
      <path class="cls-5" d="M227.3,209.8a4.3,4.3,0,0,1,.1-.5.7.7,0,0,1,.1-.5,1.3,1.3,0,0,1,.1-.6v-.5a1.3,1.3,0,0,0,.1-.6c0-.1.1-.3.1-.4V206a.6.6,0,0,0,.1-.4v-1.3h-1.2c-3.9,0-4.7,1.4-4.7,3.6v.2c0,2.2,1.2,2.7,3.1,2.7a6.9,6.9,0,0,0,2-.3v-.2a1.1,1.1,0,0,1,.1-.5"></path>
    </g>
  </g>
</svg>
