<?xml version="1.0" encoding="UTF-8"?>
<svg preserveAspectRatio="xMidYMid slice" width="136px" height="136px" xmlns="http://www.w3.org/2000/svg" viewBox="0 0 416 416">
  <defs>
    <style>.cls-1{fill:#fff;}.cls-2{fill:#f7d146;}</style>
  </defs>
  <title>bethard</title>
  <g id="Layer_2" data-name="Layer 2">
    <g id="Layer_5" data-name="Layer 5">
      <rect class="cls-1" width="416" height="416"></rect>
    </g>
    <g id="Layer_1-2" data-name="Layer 1">
      <g id="bethard">
        <path class="cls-2" d="M136.2,227.5c-4.2,0-6.9-.1-12-.4V190c5.4-.3,8.1-.4,12.1-.4,10.9,0,17.2,1.9,17.2,10.4v.5a8.2,8.2,0,0,1-4.3,7.6c3.3,1.5,4.5,4.6,4.5,7.6v.5c0,9.4-7.2,11.3-17.5,11.3m8.4-27.1c0-3.7-2.6-4.1-7.6-4.1h-3.8v8.9h5.2c5,0,6.2-1.6,6.2-4.4Zm.1,15.2c0-3-1.4-4.6-6.3-4.6h-5.2v9.8h3.7c5.3,0,7.8-.7,7.8-4.6Z"></path>
        <polygon class="cls-2" points="158.3 227.1 158.3 190 183.5 190 183.5 196.8 167.6 196.8 167.6 204.9 182.4 204.9 182.4 211.3 167.6 211.3 167.6 220.3 183.5 220.3 183.5 227.1 158.3 227.1"></polygon>
        <polygon class="cls-2" points="207.3 196.8 207.3 227.1 197.9 227.1 197.9 196.8 187.2 196.8 187.2 190 218 190 218 196.8 207.3 196.8"></polygon>
        <polygon class="cls-2" points="245.3 227.1 245.3 211.5 231.4 211.5 231.4 227.1 222 227.1 222 190 231.4 190 231.4 204.4 245.3 204.4 245.3 190 254.6 190 254.6 227.1 245.3 227.1"></polygon>
        <path class="cls-2" d="M284.7,227.1l-2.6-9.3H271.6l-2.7,9.3h-9.6L269.6,190h14.5l10.4,37.1Zm-6.5-25.8a52.3,52.3,0,0,1-1.2-5.7h-.3a52.3,52.3,0,0,1-1.2,5.7l-2.6,9.8h8Z"></path>
        <path class="cls-2" d="M321.3,227.1l-7.5-13.2h-5.6v13.2h-9V190c3.7-.2,7.4-.4,12-.4,9.3,0,17.2,1.8,17.2,12v.3c0,5.5-2.2,8.4-5.9,10.2l8.2,15Zm-2-25.4c0-4.2-2.4-5.1-7.8-5.1h-3.3v10.8h3.4c5.5,0,7.7-1.3,7.7-5.3Z"></path>
        <path class="cls-2" d="M347.7,227.5c-4.8,0-7.9-.1-12.7-.4V190c4.7-.3,7.7-.4,12.7-.4,12.5,0,18,5.3,18,16.9v3.9c0,11.8-5.2,17.1-18,17.1m8.8-21c0-7.8-2.4-9.9-8.7-9.9h-3.7v23.9h3.7c6.3,0,8.7-2.2,8.7-10.1Z"></path>
        <path class="cls-2" d="M105.4,230.3l-2,1Z"></path>
        <path class="cls-2" d="M97.8,213.8s5.5-3.8,8.6-18.8h0c-.6-3.1-2.8-7.7-11.3-7.8a10.2,10.2,0,0,1-2.6-1.7c-2.1-1.6-6.7-3-11.6.5s-3.6-.9-9.6.8-3.7,3.6-8,4.1-10.3.1-10.4,7.3h0v.6h0s-4.8,5.1-1.3,14.6c0,0-.5-4.8,1.2-6.9,0,0-.6,14,4.1,16.6s6.9-2,7.2-4.1c0,0-4.2.7-5.8-1.8,0,0,5.7,2.2,6.4-4.4s1.7-13.8-.6-18.3c0,0,1.4,2.5,3.7-.4,0,0-2.2,14.7-1.8,21.3s4.4,7.3,6.8,6.3a5.6,5.6,0,0,0,3.6-6s-2.2,3-5.4,2.5c0,0,4.1-2.9,4.7-4.9a4.3,4.3,0,0,1-4.9,1.5,6.9,6.9,0,0,0,4.4-4.1,96.3,96.3,0,0,0,1.5-11c.3-5.1,0-8.7-.9-10.7a4.1,4.1,0,0,0,5.5.1s-3.6,12.6-3.8,20,2.1,9.8,6.3,9.7,5.6-3.5,5.4-7.6a8.7,8.7,0,0,1-5.9,3.4s4.3-2.4,7.5-11.5c.7-4.1,1.4-9.2,1-13.2a4.5,4.5,0,0,0,5.6,1.6s-9.3,13.5-5.6,23.9c0,0,8.5,8,13-9.4v-1.6C103.9,207.2,101.9,211.6,97.8,213.8Z"></path>
        <path class="cls-2" d="M86.8,227.5a14.8,14.8,0,0,0,4.8.6c2.3-.2,2.3-3.4,2.3-3.4A7,7,0,0,1,86.8,227.5Z"></path>
        <path class="cls-2" d="M103.4,231.3l2-1a9.6,9.6,0,0,0,4.1-5.9c1.8-6.8-5-8.6-5-8.6,4.4,4.1,2.6,7.5,2.6,7.5-5.9-6.7-18.3-8-22.6-3.5a6.2,6.2,0,0,0-.2,8.7h0l5.3,1.6c5.9,2.6,10.3,2.4,13.4,1.3h-.4Zm-10.7-2.6c-3.1.9-7.9-1.3-7.9-1.3,1.5-2.2.5-6.2.5-6.2,2.5-.6,1.3,1.9,4.8,2.8s4.5-2.6,4.5-2.6C96.3,223.4,95.8,227.9,92.7,228.7Zm3.2,1.1s2.7-4,.9-7.7a8,8,0,0,1,2,4.9c-.2,2.6,5.8,1.5,7.4-2C106.2,225,106.7,232.8,95.9,229.8Z"></path>
        <path class="cls-2" d="M77.3,219.9s-1,5.5-7.8,4.4c0,0,5.7,3.1,11.1,2.8a7.6,7.6,0,0,1,.1-5.7S76.3,225,77.3,219.9Z"></path>
      </g>
    </g>
  </g>
</svg>
