<?xml version="1.0" encoding="UTF-8"?>
<svg xmlns="http://www.w3.org/2000/svg" viewBox="0 0 283.7 132.1" width="284" height="133">
  <defs>
    <style>.cls-1{fill:#8247b5;}.cls-2{fill:#666;}</style>
  </defs>
  <title>bambora_ingenico_logo</title>
  <g id="Layer_2" data-name="Layer 2">
    <g id="Lager_1" data-name="Lager 1">
      <path class="cls-1" d="M30.9,61.2c0,8.3-6.3,14.5-13.8,14.5a14.1,14.1,0,0,1-7.6-2.1h0A36.3,36.3,0,0,1,.3,75V37.4A36.3,36.3,0,0,0,9.5,36V48.9a13.4,13.4,0,0,1,7.6-2.2C24.6,46.7,30.9,52.9,30.9,61.2Zm-9.1,0a6.6,6.6,0,0,0-6.5-6.9,7.4,7.4,0,0,0-5.8,2.6v8.6a7.4,7.4,0,0,0,5.8,2.6C19.1,68.1,21.8,65.1,21.8,61.2Z"></path>
      <path class="cls-1" d="M142.6,61.2c0,8.3-6.3,14.5-13.8,14.5a14.1,14.1,0,0,1-7.6-2.1h0A36.3,36.3,0,0,1,112,75V37.4a36.3,36.3,0,0,0,9.2-1.4V48.9a13.4,13.4,0,0,1,7.6-2.2C136.3,46.7,142.6,52.9,142.6,61.2Zm-9.1,0a6.6,6.6,0,0,0-6.5-6.9,7.3,7.3,0,0,0-5.8,2.6v8.6a7.3,7.3,0,0,0,5.8,2.6C130.8,68.1,133.5,65.1,133.5,61.2Z"></path>
      <path class="cls-1" d="M173.5,61.1c0,8.5-6.3,14.8-15.1,14.8s-15-6.3-15-14.8,6.3-14.5,15-14.5S173.5,52.8,173.5,61.1Zm-8.8.1c0-3.6-2.5-6.6-6.2-6.6a6.3,6.3,0,0,0-6.3,6.6c0,3.7,2.5,6.7,6.3,6.7S164.7,64.9,164.7,61.2Z"></path>
      <path class="cls-1" d="M183.9,47.3v2.9a14.2,14.2,0,0,1,9.6-3.4v8.8c-4.5.2-7.4,1.4-9.6,3.6V75h-9.2V48.7A36.3,36.3,0,0,0,183.9,47.3Z"></path>
      <path class="cls-1" d="M73.5,48.9a37.6,37.6,0,0,1-9.3-1.4V75h9.3V57.3c1.4-1.8,2.8-2.5,4.2-2.5,3,0,5,1.9,5,5.8V75h9.2V59.2a14.8,14.8,0,0,0-.1-2.1,5.4,5.4,0,0,1,4.3-2.3c3,0,4.9,1.9,4.9,5.8V75h9.4V59.2c0-7.9-5-12.8-11.6-12.8A13.3,13.3,0,0,0,89,50.1a11.1,11.1,0,0,0-8.6-3.7A9.7,9.7,0,0,0,73.5,48.9Z"></path>
      <path class="cls-1" d="M62.4,75a34.3,34.3,0,0,1-9.3-1.5h0a14.1,14.1,0,0,1-7.6,2.1c-7.5,0-13.8-6.3-13.8-14.5S38,46.6,45.5,46.6a14.1,14.1,0,0,1,7.6,2.1h0a37.6,37.6,0,0,0,9.3-1.4Zm-9.3-9.6V56.8a7.1,7.1,0,0,0-5.8-2.6,6.6,6.6,0,0,0-6.5,6.9A6.6,6.6,0,0,0,47.3,68,7.1,7.1,0,0,0,53.1,65.4Z"></path>
      <path class="cls-1" d="M223.9,75a34.3,34.3,0,0,1-9.3-1.5h0a13.9,13.9,0,0,1-7.6,2.1c-7.5,0-13.8-6.3-13.8-14.5s6.3-14.5,13.8-14.5a13.9,13.9,0,0,1,7.6,2.1h0a37.6,37.6,0,0,0,9.3-1.4Zm-9.3-9.6V56.8a7.1,7.1,0,0,0-5.8-2.6,6.9,6.9,0,0,0,0,13.8A7.1,7.1,0,0,0,214.6,65.4Z"></path>
      <path class="cls-1" d="M215.1,108l5.3,1.9,1.2-2.8-5.9-2Zm1.2-5.5,6.4,2.2,1.4-2.7c-2.4-.7-4.8-1.5-7.1-2.4C216.8,100.6,216.5,101.6,216.3,102.5Zm-2.4,11,4.5,1.6c.3-.9.7-1.8,1.1-2.8a50.1,50.1,0,0,1-5-1.8C214.3,111.6,214.1,112.5,213.9,113.5Zm-2.2,11,2.9,1.1c.3-.8.6-1.8,1-2.8l-3.3-1.2C212,122.6,211.9,123.6,211.7,124.5Zm1.1-5.5,3.7,1.4c.3-.9.6-1.8,1-2.8l-4.1-1.6A19.8,19.8,0,0,0,212.8,119Zm4.8-21.9c2.6.9,5.3,1.8,7.9,2.5a23.5,23.5,0,0,1,1.9-2.5,92.4,92.4,0,0,1-8.9-2.9Zm19.2,13.7-5-1,.5,3.2,4.6.8Zm-.2-5.9a56,56,0,0,1-5.9-1.2l.5,3.2,5.5,1ZM220.5,89l-1.2,2.8a87.8,87.8,0,0,0,10,2.9,29.1,29.1,0,0,1,2.7-2.4A79.1,79.1,0,0,1,220.5,89Zm12.8,6.6,2.9.5V93.2A12.7,12.7,0,0,0,233.3,95.6Zm3,3.4-4.7-.9a17.5,17.5,0,0,0-1.4,2.7c2.1.5,4.1.9,6.2,1.2Zm-26,33.1h2c.2-.6,1-2.7,1.4-4l-2.5-1C211,128.3,210.5,131.3,210.3,132.1ZM261.9,84l2.9-.5-.2-3-2,.4Zm5.8-35c-3.5.2-6.9.6-10.4,1.1l-.3.7a20.3,20.3,0,0,1-1.1,2.6A84.2,84.2,0,0,1,267,52C267.2,51,267.5,50,267.7,49Zm-2,9.2.6-3A79.6,79.6,0,0,0,254.7,57l-.8.2c-.8,1.2-1.6,2.4-2.4,3.4l3.8-.7A93.8,93.8,0,0,1,265.7,58.2Zm6.5-55.5a1.3,1.3,0,0,0,1.6-1.1A1.5,1.5,0,0,0,272.7,0a1.4,1.4,0,0,0-1.6,1.1A1.3,1.3,0,0,0,272.2,2.7ZM269,42.9c-3.1.1-6.2.3-9.3.7-.4,1-.7,2.1-1.1,3.1,3.2-.4,6.5-.7,9.7-.8C268.5,44.9,268.7,43.9,269,42.9Zm-5.7,34.5,1-.2-.3-2.9Zm-2.2.5c.3-1.1.5-2.2.8-3.2a71.3,71.3,0,0,1-29.1.2l-3.1,2.3a70.2,70.2,0,0,0,17.1,2.1A77.8,77.8,0,0,0,261.1,77.9Zm-.5-6.3,2.1-.5c.3-1,.5-2.1.8-3.1l-3.5.7a64.2,64.2,0,0,1-14.4,1.6l-5.1-.2-4.1,2.5a69.9,69.9,0,0,0,9.2.7A69.7,69.7,0,0,0,260.6,71.6Zm3.6-7c.3-1,.5-2.1.7-3.1-2.5.3-5,.8-7.6,1.3a56.1,56.1,0,0,1-9,1.4l-3.7,3.1A56.4,56.4,0,0,0,258,65.7Zm-26.9,58L234,122l.5,3.1,2.9.5Zm23.2-32.1,4.9-.8-.3-3-3.9.7ZM237,116.7l-4.1-.8.5,3.2,3.8.6Zm31.4,6.9-2.8.3.6,2.9,2.5-.2Zm-1.6,6.3.4,2.2h2l-.2-2.4Zm1.1-12.4-3.4.4.6,2.9,3.1-.3Zm-1.1-12.2-4.6.5.5,3,4.4-.5Zm.5,6.1-4,.5.6,2.9,3.7-.4Zm-6.5-71.1c2.9-.3,5.9-.4,8.8-.5l.6-2.9q-4.2,0-8.4.3C261.4,38.2,261.1,39.3,260.8,40.3Zm9.1-34.6q-.7-.2-.6-1.2a2.2,2.2,0,0,0-.3-1.9,4,4,0,0,0-2.7-1.2s-.6,1.7.2,2.7a3,3,0,0,0,1.9,1,.9.9,0,0,1,.8,1,16,16,0,0,1-.3,3.4c2.9.4,6.5,1.1,10.2,1.9h3.6l1-1.8A85,85,0,0,0,269.9,5.7Zm-2.4,10.2,6.6.3c.2-1,.4-2,.5-2.9l-6.5-.4Zm-2.3,9c-.2,1-.5,2-.8,3h7.5l.6-2.9Zm.8-3c2.4,0,4.7,0,7,.2l.6-3-6.8-.2C266.5,19.9,266.3,20.9,266,21.9ZM263.6,31l-.9,3c2.7-.1,5.4-.2,8.1-.1l.6-3C268.8,30.8,266.2,30.9,263.6,31ZM249.8,82.3h-1a81.9,81.9,0,0,1-21.5-2.9,26.6,26.6,0,0,0-2.3,2.4,78.8,78.8,0,0,0,23.1,3.4h1.7a62.4,62.4,0,0,0,9.7-.8c.3-1,.5-2,.8-3.1A74.6,74.6,0,0,1,249.8,82.3Zm16.4,16.8-5.2.7.6,2.9a41,41,0,0,0,4.9-.6Zm-20,15.8,5.3.3c.3-1,.5-2,.8-3a54.9,54.9,0,0,1-5.8-.3Q246.4,113.6,246.2,114.9Zm-.6,5.9,4.3.3c.2-1,.5-2,.8-3l-4.8-.3Q245.8,119.5,245.6,120.8Zm-1,11.3h2.2c.2-.7.5-1.5.7-2.4l-2.7-.2C244.6,131.5,244.6,132.1,244.6,132.1Zm.5-5.5,3.2.3c.2-1,.5-1.9.8-2.9l-3.8-.3C245.2,124.8,245.1,125.8,245.1,126.6Zm1.6-17.6,6.3.2h.1c.3-1,.5-2,.8-3a56.1,56.1,0,0,1-7.1-.2C246.8,107,246.8,108,246.7,109Zm-11.6,19.1.7,4h1.9l-.2-3.6Zm11.6-28c.1,1,.1,2,.1,3h7.9c.3-1,.5-2,.8-3h-3.7Zm19-7.1-5.9.8h0l.6,2.9c1.8-.2,3.7-.4,5.6-.8Zm-20.3,1.1a13.2,13.2,0,0,1,.8,3h4.3a55.2,55.2,0,0,0,5.8-.2c.3-.9.5-2,.8-3A91.4,91.4,0,0,1,245.4,94.1ZM223.4,84c-.6.8-1.1,1.7-1.7,2.6a83.2,83.2,0,0,0,13.9,3.5,9.8,9.8,0,0,1,4-.8,5.3,5.3,0,0,1,4,1.7,56.2,56.2,0,0,0,5.8.2,80.6,80.6,0,0,0,8.5-.4c.3-1,.5-2,.8-3.1a72.6,72.6,0,0,1-9.3.6A81,81,0,0,1,223.4,84Z"></path>
      <path class="cls-2" d="M19.4,105.2V92.8h2.7v12.4Z"></path>
      <path class="cls-2" d="M25.6,86.4h49v2.2h-49Z"></path>
      <path class="cls-2" d="M43.6,110.3a15.4,15.4,0,0,1-4.3-.7l.4-2.4a15.5,15.5,0,0,0,3.5.5c1.8,0,3-.3,3-2.5.1,0,0-.6,0-.6a3.6,3.6,0,0,1-2.2.8c-2.6,0-5.5-.7-5.5-6.3s2.7-6.5,6-6.5a28,28,0,0,1,4.5.5v12.5C49,109,46.1,110.3,43.6,110.3Zm2.6-15.1H44.4c-2.3,0-3.2,1.7-3.2,4s1.2,3.9,3,3.9a3.9,3.9,0,0,0,2-.6Z"></path>
      <path class="cls-2" d="M54.3,99.8c0,2.7,1.6,3.1,3.6,3.1a19.1,19.1,0,0,0,3.2-.3l.4,2.3a15.8,15.8,0,0,1-4.1.5c-3.6,0-5.9-1.4-5.9-6.2s2.4-6.7,5.6-6.7,4.7,2.4,4.7,6.3v1Zm2.6-5c-1.2,0-2.4.9-2.5,2.9H59C59,95.8,58.1,94.8,56.9,94.8Z"></path>
      <path class="cls-2" d="M78.1,105.2V92.8h2.8v12.4Z"></path>
      <path class="cls-2" d="M92.1,95.5a6.7,6.7,0,0,0-2.6-.5c-1.8,0-3.1,1-3.1,3.9s.6,4.1,3.7,4.1a14.3,14.3,0,0,0,2.3-.3l.4,2.3a11.9,11.9,0,0,1-2.9.4c-4.6,0-6.4-1.9-6.4-6.5s2.3-6.4,6-6.4a7.1,7.1,0,0,1,3.4.8Z"></path>
      <path class="cls-2" d="M99.9,105.4c-3.6,0-5.6-2.3-5.6-6.3s2.3-6.6,5.7-6.6,5.7,2.4,5.7,6.5S103.2,105.4,99.9,105.4Zm.1-10.5c-2.3,0-2.9,2-2.9,4.1s.7,4,2.9,4,2.8-1.8,2.8-4S102.3,94.9,100,94.9Z"></path>
      <path class="cls-2" d="M22.4,87.5a1.6,1.6,0,0,1-1.6,1.6,1.6,1.6,0,0,1,0-3.2A1.6,1.6,0,0,1,22.4,87.5Z"></path>
      <path class="cls-2" d="M81.1,87.5a1.6,1.6,0,1,1-1.6-1.6A1.6,1.6,0,0,1,81.1,87.5Z"></path>
      <path class="cls-2" d="M32.2,92.5a6.4,6.4,0,0,0-3.8,1.6h-.1a1.9,1.9,0,0,0-1.6-1.4H25.6v12.4h2.8V96.1a6.6,6.6,0,0,1,3-1c1.5,0,1.8.8,1.8,2.6v7.5H36V97.3C36,94.8,35.8,92.5,32.2,92.5Z"></path>
      <path class="cls-2" d="M70.9,92.5a6.1,6.1,0,0,0-3.8,1.6h0a.1.1,0,0,0-.1.1,1.9,1.9,0,0,0-1.7-1.4h-1v12.4h2.8V96.1a6.6,6.6,0,0,1,2.9-1c1.6,0,1.9.8,1.9,2.6v7.5h2.7V97.3C74.6,94.8,74.4,92.5,70.9,92.5Z"></path>
      <path class="cls-2" d="M79.4,115.6a4,4,0,0,1-2,.4c-2.2,0-3.1-1.1-3.1-3.6s.9-3.7,3.1-3.7a5.4,5.4,0,0,1,1.9.3v.9a4.7,4.7,0,0,0-1.7-.3c-1.6,0-2.2.6-2.2,2.8s.6,2.7,2.1,2.7a2.3,2.3,0,0,0,1.2-.2v-2.8h.8Z"></path>
      <path class="cls-2" d="M84.2,112.7l1.8,3.2H84.9l-1.6-3H81.9v3H81v-7.1h2.3c1.6,0,2.3.6,2.3,2S85.1,112.6,84.2,112.7Zm-.9-3.1H81.9v2.5h1.4c.9,0,1.3-.3,1.3-1.2S84.2,109.6,83.3,109.6Z"></path>
      <path class="cls-2" d="M89.6,116c-2,0-2.9-1-2.9-3.6s.9-3.7,2.9-3.7,2.9,1.1,2.9,3.7S91.7,116,89.6,116Zm0-6.4c-1.3,0-1.9.6-1.9,2.8s.6,2.7,1.9,2.7,1.9-.6,1.9-2.7S91,109.6,89.6,109.6Z"></path>
      <path class="cls-2" d="M99.2,113.4c0,1.8-1,2.6-2.7,2.6a2.3,2.3,0,0,1-2.6-2.6v-4.6h.9v4.5c0,1.3.6,1.8,1.7,1.8s1.7-.5,1.7-1.8v-4.5h1Z"></path>
      <path class="cls-2" d="M103.2,113.2h-1.3v2.7h-1v-7.1h2.3c1.7,0,2.5.7,2.5,2.2S105,113.2,103.2,113.2Zm0-3.6h-1.3v2.8h1.3c1,0,1.5-.3,1.5-1.4S104.2,109.6,103.2,109.6Z"></path>
      <path class="cls-2" d="M4.2,104.2h0a2.5,2.5,0,0,1-2.1.9A1.9,1.9,0,0,1,0,102.9c0-1.3.8-2.1,2.5-2.1a4.1,4.1,0,0,1,1.6.3v-.7c0-1.1-.5-1.5-1.6-1.5a4.2,4.2,0,0,0-2,.5v-1A5.4,5.4,0,0,1,2.6,98c1.9,0,2.5.8,2.5,2.6V105H4.3Zm-.1-2.3a3.2,3.2,0,0,0-1.4-.3c-1.2,0-1.7.5-1.7,1.3s.6,1.3,1.4,1.3,1.7-.5,1.7-1.1Z"></path>
      <path class="cls-2" d="M11.2,105v-4.5c0-1.1-.5-1.5-1.5-1.5a1.9,1.9,0,0,0-1.6.8V105H7V98.1h.8v.7H8a2.6,2.6,0,0,1,2-.8c1.4,0,2.3.8,2.3,2.5V105Z"></path>
      <path class="cls-2" d="M117,99.3a5.8,5.8,0,0,0-1.4-.3c-1.5,0-2,.7-2,2.5s.7,2.7,2,2.7a2.4,2.4,0,0,0,1.5-.4v.9a3.2,3.2,0,0,1-1.8.5c-1.9,0-2.9-1.1-2.9-3.7s.9-3.5,2.9-3.5a4.3,4.3,0,0,1,1.7.4Z"></path>
      <path class="cls-2" d="M121.1,105.2c-2.1,0-3-1-3-3.6s.9-3.6,3-3.6,2.9,1,2.9,3.6S123.1,105.2,121.1,105.2Zm0-.9c1.3,0,1.8-.7,1.8-2.7s-.5-2.7-1.8-2.7-1.9.7-1.9,2.7S119.7,104.3,121.1,104.3Z"></path>
      <path class="cls-2" d="M133.4,105v-4.6a1.3,1.3,0,0,0-1.5-1.4,1.3,1.3,0,0,0-1.3,1.3V105h-1.1v-4.7a1.2,1.2,0,0,0-1.4-1.3,1.5,1.5,0,0,0-1.4.8V105h-1.1V98.1h.8l.2.7h0a2.3,2.3,0,0,1,1.8-.8,1.8,1.8,0,0,1,1.8,1.1h.1a2.1,2.1,0,0,1,1.9-1.1,2.2,2.2,0,0,1,2.3,2.4V105Z"></path>
      <path class="cls-2" d="M139.3,105.2a2.4,2.4,0,0,1-1.9-.8h0v2.3h-1.1V98.2h.8l.2.7a2.8,2.8,0,0,1,2-.8c1.7,0,2.7.9,2.7,3.6S140.9,105.2,139.3,105.2Zm-.2-6.2a2,2,0,0,0-1.7.8v3.6a1.9,1.9,0,0,0,1.6.8c1.1,0,1.9-.5,1.9-2.6S140.2,99,139.1,99Z"></path>
      <path class="cls-2" d="M147.4,104.2h0a2.5,2.5,0,0,1-2.1.9c-1.3,0-2.1-.6-2.1-2.2s.8-2.1,2.5-2.1a4.1,4.1,0,0,1,1.6.3v-.7c0-1.1-.5-1.5-1.7-1.5a4.1,4.1,0,0,0-1.9.5v-1a5.4,5.4,0,0,1,2.2-.4c1.9,0,2.5.8,2.5,2.6V105h-.8Zm-.2-2.3a2.4,2.4,0,0,0-1.3-.3c-1.2,0-1.7.5-1.7,1.3s.6,1.3,1.4,1.3,1.6-.5,1.6-1.1Z"></path>
      <path class="cls-2" d="M154.4,105v-4.5c0-1.1-.5-1.5-1.5-1.5a1.9,1.9,0,0,0-1.6.8V105h-1.1V98.1h.7l.2.7h.1a2.6,2.6,0,0,1,2-.8c1.4,0,2.3.8,2.3,2.5V105Z"></path>
      <path class="cls-2" d="M159.7,105.1h.1l-3-6.9H158l2,5,.3.9h.1l.2-.9,1.6-5h1.2l-2.5,7c-.5,1.3-1.2,1.8-2.2,1.8l-1-.2v-.9a1,1,0,0,0,.7.2C159.1,106,159.4,105.8,159.7,105.1Z"></path>
    </g>
  </g>
</svg>
